####
#
# OBJ File Generated by Meshlab
#
####
# Object ConstructionObstacles_bar.obj
#
# Vertices: 8
# Faces: 12
#
####
mtllib ./ConstructionObstacles_bar.obj.mtl

vn -0.403651 -2.184945 -1.570793
v -12.876715 -8.827750 1.530525 0.752941 0.752941 0.752941
vn 2.184906 -0.403862 -1.570794
v -7.670661 -5.245671 1.530525 0.752941 0.752941 0.752941
vn -0.403690 -2.183965 1.570799
v -12.876716 -8.827749 2.132096 0.752941 0.752941 0.752941
vn 2.184007 -0.403477 1.570801
v -7.670662 -5.245670 2.132096 0.752941 0.752941 0.752941
vn -2.184909 0.403864 1.570793
v -13.285912 -8.233039 2.131905 0.752941 0.752941 0.752941
vn 0.403651 2.184947 1.570793
v -8.079858 -4.650960 2.131905 0.752941 0.752941 0.752941
vn -2.184010 0.403479 -1.570801
v -13.285911 -8.233040 1.530335 0.752941 0.752941 0.752941
vn 0.403690 2.183968 -1.570799
v -8.079857 -4.650961 1.530335 0.752941 0.752941 0.752941
# 8 vertices, 0 vertices normals


usemtl material_0
vt 0.375000 0.000000
vt 0.625000 0.000000
vt 0.625000 0.250000
f 1/1/1 2/2/2 4/3/4
vt 0.375000 0.250000
f 1/1/1 4/3/4 3/4/3
vt 0.625000 0.500000
f 3/4/3 4/3/4 6/5/6
vt 0.375000 0.500000
f 3/4/3 6/5/6 5/6/5
vt 0.625000 0.750000
f 5/6/5 6/5/6 8/7/8
vt 0.375000 0.750000
f 5/6/5 8/7/8 7/8/7
vt 0.625000 1.000000
f 7/8/7 8/7/8 2/9/2
vt 0.375000 1.000000
f 7/8/7 2/9/2 1/10/1
vt 0.875000 0.000000
vt 0.875000 0.250000
f 2/2/2 8/11/8 6/12/6
f 2/2/2 6/12/6 4/3/4
vt 0.125000 0.000000
f 7/13/7 1/1/1 3/4/3
vt 0.125000 0.250000
f 7/13/7 3/4/3 5/14/5
# 12 faces, 14 coords texture

# End of File
