# This file uses centimeters as units for non-parametric coordinates.

v -11.685818 6.800568 0.239186
v 1.943365 9.171202 0.266571
v -11.728278 7.044667 0.266572
v 1.900894 9.415367 0.266571
v -24.624104 -19.399725 0.000000
v -13.159589 -7.945594 0.000000
v -9.098621 0.828451 -0.000000
v -24.624104 19.345018 -0.000000
v -13.143521 -7.968947 0.000000
v -13.135999 -7.929363 0.000000
v -11.677469 6.753473 -0.000000
v -12.594631 -8.766681 0.000000
v -10.724465 -6.270082 0.000000
v -11.736310 7.091751 -0.000000
v -5.097196 4.582014 -0.000000
v -13.119930 -7.952715 0.000000
v -12.578563 -8.790034 0.000000
v -10.708397 -6.293435 0.000000
v -10.700875 -6.253851 0.000000
v 1.892717 9.462382 -0.000000
v -3.326044 6.111324 -0.000000
v -12.571041 -8.750449 0.000000
v 25.537532 -19.399725 0.000000
v -7.430366 -0.949964 0.000000
v 7.163139 9.618827 -0.000000
v -3.349142 5.733781 -0.000000
v -3.123502 6.103906 -0.000000
v -10.159507 -7.091169 0.000000
v -12.554973 -8.773802 0.000000
v -8.476978 -4.831514 0.000000
v 2.892631 7.067089 0.000000
v 25.537532 19.345018 -0.000000
v -3.151631 5.716826 -0.000000
v -3.099381 6.121627 -0.000000
v -5.477238 -9.197077 0.000000
v -10.684807 -6.277203 0.000000
v -8.453748 -4.815530 0.000000
v 1.951550 9.124147 -0.000000
v 7.180831 9.589220 -0.000000
v -3.118628 5.688234 -0.000000
v -0.952058 5.994858 -0.000000
v -10.143441 -7.114522 0.000000
v -5.454007 -9.181093 0.000000
v -10.135917 -7.074937 0.000000
v -8.460666 -4.855225 0.000000
v -7.653212 -4.264713 0.000000
v 8.160787 7.818016 -0.000000
v -3.428942 2.803599 -0.000000
v -0.822422 6.018687 -0.000000
v -5.493553 -9.173365 0.000000
v -4.651284 -8.627888 0.000000
v -7.636898 -4.288423 0.000000
v -7.629980 -4.248728 0.000000
v -0.643831 6.009023 -0.000000
v 6.960832 8.491277 -0.000000
v 8.177071 7.792587 -0.000000
v -1.004974 5.539861 -0.000000
v -6.770002 -7.312368 0.000000
v -4.628053 -8.611903 0.000000
v -5.470322 -9.157380 0.000000
v -10.119850 -7.098290 0.000000
v -8.437434 -4.839240 0.000000
v 5.391025 -0.341341 0.000000
v -0.669281 5.463122 -0.000000
v 6.910385 8.437322 -0.000000
v 7.848642 7.661217 -0.000000
v 14.634149 3.079622 -0.000000
v -0.862696 5.480251 -0.000000
v 13.649913 -2.325450 0.000000
v -4.667600 -8.604175 0.000000
v -6.786317 -7.288657 0.000000
v -6.763086 -7.272672 0.000000
v -7.613666 -4.272439 0.000000
v 4.925762 6.903749 -0.000000
v 7.798196 7.607261 -0.000000
v 13.813063 -1.702629 0.000000
v 15.069774 3.211880 -0.000000
v -0.861679 5.479749 -0.000000
v -6.746771 -7.296383 0.000000
v 14.042898 -2.095614 0.000000
v -4.644367 -8.588196 -0.000002
v -5.962549 -6.721855 0.000000
v 5.449713 -1.228594 -0.000000
v 5.391025 2.461563 -0.000000
v 4.168928 7.763419 -0.001891
v 3.973353 5.149827 -0.000000
v 13.420078 -1.932465 0.000000
v 14.959537 -0.025274 0.000000
v 15.202032 2.776255 -0.000000
v -5.923004 -6.729581 0.000000
v -5.946235 -6.745566 0.000000
v -5.939318 -6.705870 0.000000
v 5.449713 1.574310 -0.000000
v 2.909097 7.062861 -0.000000
v 2.926732 7.033346 -0.000000
v 4.877668 6.860686 -0.000000
v 6.356710 2.525439 -0.000000
v 15.409521 -0.094382 0.000000
v 14.766407 2.643997 -0.000000
v 6.356710 -0.277466 0.000000
v 4.106432 7.722026 -0.000000
v 4.003408 5.102893 -0.000000
v 6.415398 1.638186 -0.000000
v 15.028645 0.424710 -0.000000
v 15.478629 0.355602 -0.000000
v 6.415398 -1.164719 -0.000000
v 5.440970 -10.634988 1.370922
v 6.166390 -10.418975 1.451663
v 6.456223 -9.487443 1.519254
v 4.675721 -10.418975 1.297984
v 7.425710 -11.992897 0.651865
v 5.444928 -8.471490 1.321828
v 3.416400 -11.992897 0.651865
v 5.421055 -13.287058 0.651865
v 8.655527 -9.487443 0.651865
v 4.845675 -9.019462 1.284557
v 6.166390 -8.646362 1.425406
v 4.056028 -9.605565 1.177188
v 5.421055 -13.730775 0.318008
v 9.010553 -9.487443 0.318008
v 7.217305 -7.163369 0.651865
v 3.486856 -8.073943 0.651865
v 2.244565 -10.367321 0.651865
v 7.780736 -12.436613 0.318008
v 5.258306 -6.993627 0.651865
v 3.061375 -12.436613 0.318008
v 1.889541 -10.367321 0.318008
v 5.414214 -14.956793 0.031668
v 8.536230 -13.244530 0.031668
v 7.572330 -6.719652 0.318008
v 5.258306 -6.549910 0.318008
v 2.292199 -13.244530 0.031668
v 10.163361 -9.342580 0.031668
v 3.131832 -7.630226 0.318008
v 0.787002 -10.516731 0.031668
v 8.310579 -5.637018 0.031668
v 5.236724 -5.531014 0.031668
v 2.385418 -6.885356 0.031668
vt 0.375000 0.250000
vt 0.625000 0.250000
vt 0.375000 0.500000
vt 0.625000 0.500000
vt 0.000000 0.000000
vt 0.221114 0.295631
vt 0.299437 0.522088
vt 0.000000 1.000000
vt 0.221423 0.295028
vt 0.221569 0.296050
vt 0.249699 0.675013
vt 0.232010 0.274438
vt 0.268079 0.338875
vt 0.248564 0.683744
vt 0.376611 0.618968
vt 0.221878 0.295447
vt 0.232320 0.273836
vt 0.268389 0.338273
vt 0.268534 0.339294
vt 0.511422 0.744918
vt 0.410771 0.658439
vt 0.232465 0.274857
vt 0.967457 0.000000
vt 0.331612 0.476187
vt 0.613074 0.748967
vt 0.410325 0.648695
vt 0.414677 0.658248
vt 0.278975 0.317683
vt 0.232775 0.274255
vt 0.311426 0.376005
vt 0.530709 0.683107
vt 0.967456 1.000000
vt 0.414135 0.648257
vt 0.415143 0.658705
vt 0.369281 0.263330
vt 0.268844 0.338692
vt 0.311874 0.376417
vt 0.512557 0.736189
vt 0.613415 0.748203
vt 0.414771 0.647519
vt 0.456506 0.655053
vt 0.279285 0.317080
vt 0.369729 0.263742
vt 0.279430 0.318102
vt 0.311741 0.375393
vt 0.327314 0.390634
vt 0.632315 0.702489
vt 0.408786 0.573067
vt 0.459058 0.656048
vt 0.368967 0.263942
vt 0.385211 0.278021
vt 0.327628 0.390022
vt 0.327762 0.391047
vt 0.462502 0.655799
vt 0.609172 0.719866
vt 0.632629 0.701832
vt 0.455537 0.643690
vt 0.344348 0.311974
vt 0.385659 0.278433
vt 0.369415 0.264354
vt 0.279740 0.317499
vt 0.312189 0.375805
vt 0.578895 0.491896
vt 0.461969 0.641858
vt 0.608199 0.718473
vt 0.626295 0.698442
vt 0.757165 0.580191
vt 0.458277 0.642151
vt 0.738182 0.440686
vt 0.384897 0.278633
vt 0.344033 0.312586
vt 0.344481 0.312999
vt 0.328077 0.390435
vt 0.569922 0.678891
vt 0.625322 0.697049
vt 0.741329 0.456761
vt 0.765567 0.583604
vt 0.458301 0.642138
vt 0.344796 0.312387
vt 0.745762 0.446618
vt 0.385345 0.279045
vt 0.359921 0.327215
vt 0.580027 0.468996
vt 0.578895 0.564239
vt 0.555047 0.701123
vt 0.551553 0.633623
vt 0.733750 0.450829
vt 0.763441 0.500054
vt 0.768118 0.572361
vt 0.360684 0.327016
vt 0.360236 0.326603
vt 0.360369 0.327628
vt 0.580027 0.541339
vt 0.531027 0.682998
vt 0.531367 0.682236
vt 0.568994 0.677780
vt 0.597520 0.565887
vt 0.772120 0.498270
vt 0.759716 0.568947
vt 0.597520 0.493545
vt 0.554119 0.700011
vt 0.552132 0.632411
vt 0.598652 0.542987
vt 0.764774 0.511668
vt 0.773453 0.509884
vt 0.598652 0.470645
vt 0.485633 0.447987
vt 0.571177 0.472541
vt 0.605355 0.578425
vt 0.395392 0.472541
vt 0.719680 0.293638
vt 0.486099 0.693904
vt 0.246888 0.293639
vt 0.483284 0.146536
vt 0.864705 0.578425
vt 0.415433 0.631618
vt 0.571177 0.674027
vt 0.322315 0.564998
vt 0.483284 0.096100
vt 0.906570 0.578425
vt 0.695105 0.842594
vt 0.255197 0.739092
vt 0.108701 0.478412
vt 0.761546 0.243203
vt 0.464092 0.861888
vt 0.205022 0.243203
vt 0.066835 0.478412
vt 0.482477 -0.043257
vt 0.850637 0.151370
vt 0.736970 0.893030
vt 0.464092 0.912324
vt 0.114318 0.151370
vt 1.042514 0.594891
vt 0.213331 0.789528
vt -0.063180 0.461429
vt 0.824027 1.016089
vt 0.461547 1.028138
vt 0.125311 0.874195
vn 0.016888 -0.108576 0.993945
vn 0.000195 -0.001253 0.999999
vn 0.016698 -0.107352 0.994081
vn 0.000000 0.000000 1.000000
vn 0.000000 0.000000 1.000000
vn -0.000000 0.000000 1.000000
vn 0.000000 0.000000 1.000000
vn -0.000000 -0.000000 1.000000
vn -0.000000 0.000000 1.000000
vn -0.000000 0.000000 1.000000
vn 0.000000 0.000000 1.000000
vn -0.000000 0.000000 1.000000
vn 0.000000 0.000000 1.000000
vn 0.000000 -0.000000 1.000000
vn -0.000000 0.000000 1.000000
vn -0.000000 0.000000 1.000000
vn -0.000000 0.000000 1.000000
vn -0.000000 0.000000 1.000000
vn 0.000000 -0.000000 1.000000
vn -0.000000 -0.000000 1.000000
vn -0.000000 0.000000 1.000000
vn -0.000000 0.000000 1.000000
vn 0.000000 0.000000 1.000000
vn -0.000000 0.000000 1.000000
vn 0.000000 0.000000 1.000000
vn -0.000000 0.000000 1.000000
vn 0.000000 0.000000 1.000000
vn -0.000000 0.000000 1.000000
vn -0.000000 0.000000 1.000000
vn -0.000000 0.000000 1.000000
vn 0.000000 0.000000 1.000000
vn 0.000000 0.000000 1.000000
vn -0.000000 0.000000 1.000000
vn -0.000000 -0.000000 1.000000
vn -0.000000 0.000000 1.000000
vn -0.000000 0.000000 1.000000
vn 0.000000 0.000000 1.000000
vn -0.000000 0.000000 1.000000
vn -0.000024 0.000020 1.000000
vn -0.000000 0.000000 1.000000
vn -0.000000 0.000000 1.000000
vn -0.000000 0.000000 1.000000
vn 0.000000 0.000000 1.000000
vn 0.000000 0.000000 1.000000
vn -0.000000 0.000000 1.000000
vn 0.000000 0.000000 1.000000
vn -0.000000 0.000000 1.000000
vn 0.000000 0.000000 1.000000
vn -0.000000 -0.000000 1.000000
vn 0.000000 0.000000 1.000000
vn 0.000000 0.000000 1.000000
vn 0.000000 0.000000 1.000000
vn 0.000000 0.000000 1.000000
vn -0.000000 -0.000000 1.000000
vn 0.000000 0.000000 1.000000
vn -0.000000 0.000000 1.000000
vn -0.000000 0.000000 1.000000
vn 0.000000 0.000000 1.000000
vn -0.000000 0.000000 1.000000
vn 0.000000 0.000000 1.000000
vn 0.000000 0.000000 1.000000
vn 0.000000 0.000000 1.000000
vn 0.000000 0.000000 1.000000
vn -0.000000 0.000000 1.000000
vn 0.000000 0.000000 1.000000
vn 0.000000 0.000000 1.000000
vn 0.000000 0.000000 1.000000
vn -0.000000 0.000000 1.000000
vn 0.000000 -0.000000 1.000000
vn 0.000002 0.000001 1.000000
vn -0.000000 -0.000000 1.000000
vn -0.000000 -0.000000 1.000000
vn 0.000000 0.000000 1.000000
vn -0.000957 0.000804 0.999999
vn -0.000000 0.000000 1.000000
vn -0.000000 0.000000 1.000000
vn -0.000000 0.000000 1.000000
vn -0.000000 0.000000 1.000000
vn -0.000000 0.000000 1.000000
vn 0.000000 0.000000 1.000000
vn 0.000000 -0.000000 1.000000
vn 0.000000 0.000000 1.000000
vn 0.000000 -0.000000 1.000000
vn 0.000000 0.000000 1.000000
vn 0.001384 -0.003319 0.999994
vn -0.000000 0.000000 1.000000
vn -0.000000 0.000000 1.000000
vn -0.000000 0.000000 1.000000
vn 0.000000 0.000000 1.000000
vn 0.000000 -0.000001 1.000000
vn 0.000000 -0.000000 1.000000
vn 0.000000 0.000000 1.000000
vn -0.000000 0.000000 1.000000
vn 0.000000 0.000000 1.000000
vn 0.000010 -0.000016 1.000000
vn -0.000000 0.000000 1.000000
vn -0.000000 0.000000 1.000000
vn 0.000000 0.000000 1.000000
vn -0.000000 0.000000 1.000000
vn -0.000000 0.000000 1.000000
vn -0.001453 0.002489 0.999996
vn 0.000000 0.000000 1.000000
vn 0.000000 0.000000 1.000000
vn 0.000000 0.000000 1.000000
vn -0.000000 0.000000 1.000000
vn -0.000000 0.000000 1.000000
vn -0.064562 -0.191082 0.979448
vn 0.089403 -0.196439 0.976432
vn 0.139609 0.021733 0.989968
vn -0.193808 -0.105791 0.975319
vn -0.064562 -0.191082 0.979448
vn 0.139609 0.021733 0.989968
vn 0.330623 -0.298783 0.895219
vn 0.089403 -0.196439 0.976432
vn -0.064562 -0.191082 0.979448
vn 0.139609 0.021733 0.989968
vn 0.089403 -0.196439 0.976432
vn 0.330623 -0.298783 0.895219
vn -0.193808 -0.105791 0.975319
vn 0.139609 0.021733 0.989968
vn -0.127289 0.249237 0.960041
vn -0.064562 -0.191082 0.979448
vn -0.193808 -0.105791 0.975319
vn -0.296148 -0.294275 0.908679
vn -0.064562 -0.191082 0.979448
vn -0.000190 -0.456709 0.889616
vn 0.330623 -0.298783 0.895219
vn 0.330623 -0.298783 0.895219
vn 0.543322 0.028347 0.839045
vn 0.139609 0.021733 0.989968
vn -0.193808 -0.105791 0.975319
vn -0.127289 0.249237 0.960041
vn -0.179404 0.112956 0.977269
vn 0.139609 0.021733 0.989968
vn 0.068614 0.229690 0.970842
vn -0.127289 0.249237 0.960041
vn -0.296148 -0.294275 0.908679
vn -0.000190 -0.456709 0.889616
vn -0.064562 -0.191082 0.979448
vn -0.296148 -0.294275 0.908679
vn -0.193808 -0.105791 0.975319
vn -0.265490 0.053725 0.962615
vn 0.330623 -0.298783 0.895219
vn -0.000190 -0.456709 0.889616
vn 0.000420 -0.337469 0.941337
vn 0.378629 0.010625 0.925488
vn 0.543322 0.028347 0.839045
vn 0.330623 -0.298783 0.895219
vn 0.139609 0.021733 0.989968
vn 0.543322 0.028347 0.839045
vn 0.244185 0.396926 0.884773
vn -0.193808 -0.105791 0.975319
vn -0.179404 0.112956 0.977269
vn -0.265490 0.053725 0.962615
vn -0.347127 0.315105 0.883296
vn -0.179404 0.112956 0.977269
vn -0.127289 0.249237 0.960041
vn 0.244185 0.396926 0.884773
vn 0.068614 0.229690 0.970842
vn 0.139609 0.021733 0.989968
vn -0.127289 0.249237 0.960041
vn 0.068614 0.229690 0.970842
vn 0.244185 0.396926 0.884773
vn 0.000420 -0.337469 0.941337
vn -0.000190 -0.456709 0.889616
vn -0.296148 -0.294275 0.908679
vn -0.265490 0.053725 0.962615
vn -0.497655 -0.046034 0.866153
vn -0.296148 -0.294275 0.908679
vn 0.000420 -0.337469 0.941337
vn 0.260458 -0.233966 0.936708
vn 0.330623 -0.298783 0.895219
vn 0.330623 -0.298783 0.895219
vn 0.260458 -0.233966 0.936708
vn 0.378629 0.010625 0.925488
vn 0.244185 0.396926 0.884773
vn 0.543322 0.028347 0.839045
vn 0.378629 0.010625 0.925488
vn -0.265490 0.053725 0.962615
vn -0.179404 0.112956 0.977269
vn -0.347127 0.315105 0.883296
vn -0.127289 0.249237 0.960041
vn -0.125836 0.505056 0.853864
vn -0.347127 0.315105 0.883296
vn 0.244185 0.396926 0.884773
vn -0.125836 0.505056 0.853864
vn -0.127289 0.249237 0.960041
vn -0.296148 -0.294275 0.908679
vn -0.246542 -0.250726 0.936138
vn 0.000420 -0.337469 0.941337
vn -0.347127 0.315105 0.883296
vn -0.497655 -0.046034 0.866153
vn -0.265490 0.053725 0.962615
vn -0.296148 -0.294275 0.908679
vn -0.497655 -0.046034 0.866153
vn -0.378232 -0.012689 0.925624
vn 0.260458 -0.233966 0.936708
vn 0.000420 -0.337469 0.941337
vn -0.000251 -0.227431 0.973794
vn 0.378629 0.010625 0.925488
vn 0.260458 -0.233966 0.936708
vn 0.184715 -0.170319 0.967921
vn 0.378629 0.010625 0.925488
vn 0.173198 0.258137 0.950457
vn 0.244185 0.396926 0.884773
vn -0.347127 0.315105 0.883296
vn -0.125836 0.505056 0.853864
vn -0.087449 0.387535 0.917698
vn -0.087449 0.387535 0.917698
vn -0.125836 0.505056 0.853864
vn 0.244185 0.396926 0.884773
vn -0.378232 -0.012689 0.925624
vn -0.246542 -0.250726 0.936138
vn -0.296148 -0.294275 0.908679
vn 0.000420 -0.337469 0.941337
vn -0.246542 -0.250726 0.936138
vn -0.175089 -0.176592 0.968586
vn -0.378232 -0.012689 0.925624
vn -0.497655 -0.046034 0.866153
vn -0.347127 0.315105 0.883296
vn -0.000251 -0.227431 0.973794
vn 0.184715 -0.170319 0.967921
vn 0.260458 -0.233966 0.936708
vn -0.175089 -0.176592 0.968586
vn -0.000251 -0.227431 0.973794
vn 0.000420 -0.337469 0.941337
vn 0.184715 -0.170319 0.967921
vn 0.238047 0.013068 0.971166
vn 0.378629 0.010625 0.925488
vn 0.173198 0.258137 0.950457
vn 0.378629 0.010625 0.925488
vn 0.238047 0.013068 0.971166
vn 0.244185 0.396926 0.884773
vn 0.173198 0.258137 0.950457
vn -0.087449 0.387535 0.917698
vn -0.087449 0.387535 0.917698
vn -0.255551 0.250469 0.933787
vn -0.347127 0.315105 0.883296
vn -0.246542 -0.250726 0.936138
vn -0.378232 -0.012689 0.925624
vn -0.248272 -0.015963 0.968559
vn -0.248272 -0.015963 0.968559
vn -0.175089 -0.176592 0.968586
vn -0.246542 -0.250726 0.936138
vn -0.347127 0.315105 0.883296
vn -0.255551 0.250469 0.933787
vn -0.378232 -0.012689 0.925624
vn 0.238047 0.013068 0.971166
vn 0.119602 0.180459 0.976284
vn 0.173198 0.258137 0.950457
vn -0.087449 0.387535 0.917698
vn 0.173198 0.258137 0.950457
vn 0.119602 0.180459 0.976284
vn -0.255551 0.250469 0.933787
vn -0.087449 0.387535 0.917698
vn -0.051744 0.266883 0.962339
vn -0.187740 0.184407 0.964753
vn -0.248272 -0.015963 0.968559
vn -0.378232 -0.012689 0.925624
vn -0.378232 -0.012689 0.925624
vn -0.255551 0.250469 0.933787
vn -0.187740 0.184407 0.964753
vn 0.119602 0.180459 0.976284
vn -0.051744 0.266883 0.962339
vn -0.087449 0.387535 0.917698
vn -0.051744 0.266883 0.962339
vn -0.187740 0.184407 0.964753
vn -0.255551 0.250469 0.933787
g pCube8
f 1/1/1 2/2/2 3/3/3
f 3/3/3 2/2/2 4/4/4
f 5/5/5 6/6/6 7/7/7
f 8/8/8 5/5/5 7/7/7
f 6/6/6 5/5/5 9/9/9
f 6/6/6 10/10/10 7/7/7
f 8/8/8 7/7/7 11/11/11
f 9/9/9 5/5/5 12/12/12
f 10/10/10 13/13/13 7/7/7
f 14/14/14 8/8/8 11/11/11
f 15/15/15 11/11/11 7/7/7
f 9/9/9 12/12/12 16/16/16
f 12/12/12 5/5/5 17/17/17
f 13/13/13 10/10/10 18/18/18
f 13/13/13 19/19/19 7/7/7
f 20/20/20 8/8/8 14/14/14
f 21/21/21 11/11/11 15/15/15
f 12/12/12 22/22/22 16/16/16
f 5/5/5 23/23/23 17/17/17
f 10/10/10 16/16/16 18/18/18
f 7/7/7 19/19/19 24/24/24
f 25/25/25 8/8/8 20/20/20
f 26/26/26 21/21/21 15/15/15
f 27/27/27 11/11/11 21/21/21
f 28/28/28 16/16/16 22/22/22
f 17/17/17 23/23/23 29/29/29
f 18/18/18 16/16/16 28/28/28
f 19/19/19 30/30/30 24/24/24
f 25/25/25 20/20/20 31/31/31
f 32/32/32 8/8/8 25/25/25
f 15/15/15 33/33/33 26/26/26
f 34/34/34 11/11/11 27/27/27
f 29/29/29 28/28/28 22/22/22
f 29/29/29 23/23/23 35/35/35
f 18/18/18 28/28/28 36/36/36
f 36/36/36 30/30/30 19/19/19
f 30/30/30 37/37/37 24/24/24
f 20/20/20 38/38/38 31/31/31
f 39/39/39 32/32/32 25/25/25
f 15/15/15 40/40/40 33/33/33
f 41/41/41 11/11/11 34/34/34
f 42/42/42 28/28/28 29/29/29
f 42/42/42 29/29/29 35/35/35
f 35/35/35 23/23/23 43/43/43
f 28/28/28 44/44/44 36/36/36
f 30/30/30 36/36/36 45/45/45
f 37/37/37 46/46/46 24/24/24
f 38/38/38 11/11/11 31/31/31
f 47/47/47 32/32/32 39/39/39
f 48/48/48 40/40/40 15/15/15
f 49/49/49 11/11/11 41/41/41
f 35/35/35 50/50/50 42/42/42
f 51/51/51 43/43/43 23/23/23
f 45/45/45 36/36/36 44/44/44
f 46/46/46 37/37/37 52/52/52
f 46/46/46 53/53/53 24/24/24
f 31/31/31 11/11/11 54/54/54
f 55/55/55 47/47/47 39/39/39
f 56/56/56 32/32/32 47/47/47
f 57/57/57 40/40/40 48/48/48
f 54/54/54 11/11/11 49/49/49
f 50/50/50 58/58/58 42/42/42
f 59/59/59 51/51/51 23/23/23
f 60/60/60 43/43/43 51/51/51
f 61/61/61 45/45/45 44/44/44
f 37/37/37 62/62/62 52/52/52
f 53/53/53 63/63/63 24/24/24
f 64/64/64 31/31/31 54/54/54
f 65/65/65 55/55/55 39/39/39
f 66/66/66 47/47/47 55/55/55
f 67/67/67 32/32/32 56/56/56
f 68/68/68 57/57/57 48/48/48
f 50/50/50 60/60/60 58/58/58
f 42/42/42 58/58/58 61/61/61
f 69/69/69 59/59/59 23/23/23
f 70/70/70 60/60/60 51/51/51
f 71/71/71 45/45/45 61/61/61
f 62/62/62 72/72/72 52/52/52
f 73/73/73 63/63/63 53/53/53
f 63/63/63 48/48/48 24/24/24
f 48/48/48 31/31/31 64/64/64
f 74/74/74 65/65/65 39/39/39
f 66/66/66 75/75/75 47/47/47
f 76/76/76 67/67/67 56/56/56
f 77/77/77 32/32/32 67/67/67
f 78/78/78 68/68/68 48/48/48
f 58/58/58 60/60/60 79/79/79
f 58/58/58 71/71/71 61/61/61
f 80/80/80 69/69/69 23/23/23
f 81/81/81 59/59/59 69/69/69
f 60/60/60 70/70/70 79/79/79
f 45/45/45 71/71/71 62/62/62
f 71/71/71 72/72/72 62/62/62
f 72/72/72 82/82/82 52/52/52
f 83/83/83 63/63/63 73/73/73
f 84/84/84 48/48/48 63/63/63
f 78/78/78 48/48/48 64/64/64
f 48/48/48 84/84/84 31/31/31
f 85/85/85 74/74/74 39/39/39
f 75/75/75 65/65/65 74/74/74
f 47/47/47 75/75/75 86/86/86
f 87/87/87 76/76/76 56/56/56
f 76/76/76 88/88/88 67/67/67
f 89/89/89 32/32/32 77/77/77
f 76/76/76 80/80/80 23/23/23
f 90/90/90 81/81/81 69/69/69
f 91/91/91 79/79/79 70/70/70
f 82/82/82 72/72/72 91/91/91
f 52/52/52 82/82/82 73/73/73
f 73/73/73 92/92/92 83/83/83
f 84/84/84 63/63/63 93/93/93
f 31/31/31 84/84/84 94/94/94
f 95/95/95 85/85/85 39/39/39
f 96/96/96 75/75/75 74/74/74
f 86/86/86 75/75/75 96/96/96
f 97/97/97 87/87/87 56/56/56
f 88/88/88 76/76/76 98/98/98
f 67/67/67 88/88/88 99/99/99
f 23/23/23 32/32/32 89/89/89
f 98/98/98 76/76/76 23/23/23
f 69/69/69 87/87/87 90/90/90
f 90/90/90 91/91/91 81/81/81
f 81/81/81 91/91/91 70/70/70
f 72/72/72 79/79/79 91/91/91
f 82/82/82 92/92/92 73/73/73
f 90/90/90 83/83/83 92/92/92
f 63/63/63 100/100/100 93/93/93
f 94/94/94 84/84/84 95/95/95
f 95/95/95 101/101/101 85/85/85
f 86/86/86 96/96/96 95/95/95
f 97/97/97 56/56/56 102/102/102
f 103/103/103 87/87/87 97/97/97
f 88/88/88 104/104/104 99/99/99
f 23/23/23 89/89/89 105/105/105
f 105/105/105 98/98/98 23/23/23
f 87/87/87 106/106/106 90/90/90
f 106/106/106 83/83/83 90/90/90
f 93/93/93 100/100/100 103/103/103
f 95/95/95 84/84/84 86/86/86
f 95/95/95 96/96/96 101/101/101
f 102/102/102 84/84/84 97/97/97
f 100/100/100 87/87/87 103/103/103
f 89/89/89 99/99/99 104/104/104
f 105/105/105 89/89/89 104/104/104
f 106/106/106 87/87/87 100/100/100
f 86/86/86 84/84/84 102/102/102
f 107/107/107 108/108/108 109/109/109
f 110/110/110 107/107/111 109/109/112
f 111/111/113 108/108/114 107/107/115
f 109/109/116 108/108/117 111/111/118
f 110/110/119 109/109/120 112/112/121
f 107/107/122 110/110/123 113/113/124
f 107/107/125 114/114/126 111/111/127
f 111/111/128 115/115/129 109/109/130
f 110/110/131 112/112/132 116/116/133
f 109/109/134 117/117/135 112/112/136
f 113/113/137 114/114/138 107/107/139
f 113/113/140 110/110/141 118/118/142
f 111/111/143 114/114/144 119/119/145
f 120/120/146 115/115/147 111/111/148
f 109/109/149 115/115/150 121/121/151
f 110/110/152 116/116/153 118/118/154
f 122/122/155 116/116/156 112/112/157
f 121/121/158 117/117/159 109/109/160
f 112/112/161 117/117/162 121/121/163
f 119/119/164 114/114/165 113/113/166
f 118/118/167 123/123/168 113/113/169
f 119/119/170 124/124/171 111/111/172
f 111/111/173 124/124/174 120/120/175
f 121/121/176 115/115/177 120/120/178
f 118/118/179 116/116/180 122/122/181
f 112/112/182 125/125/183 122/122/184
f 121/121/185 125/125/186 112/112/187
f 113/113/188 126/126/189 119/119/190
f 122/122/191 123/123/192 118/118/193
f 113/113/194 123/123/195 127/127/196
f 124/124/197 119/119/198 128/128/199
f 120/120/200 124/124/201 129/129/202
f 120/120/203 130/130/204 121/121/205
f 122/122/206 125/125/207 131/131/208
f 131/131/209 125/125/210 121/121/211
f 127/127/212 126/126/213 113/113/214
f 119/119/215 126/126/216 132/132/217
f 127/127/218 123/123/219 122/122/220
f 128/128/221 129/129/222 124/124/223
f 132/132/224 128/128/225 119/119/226
f 129/129/227 133/133/228 120/120/229
f 130/130/230 120/120/231 133/133/232
f 121/121/233 130/130/234 131/131/235
f 131/131/236 134/134/237 122/122/238
f 126/126/239 127/127/240 135/135/241
f 135/135/242 132/132/243 126/126/244
f 122/122/245 134/134/246 127/127/247
f 133/133/248 136/136/249 130/130/250
f 131/131/251 130/130/252 136/136/253
f 134/134/254 131/131/255 137/137/256
f 138/138/257 135/135/258 127/127/259
f 127/127/260 134/134/261 138/138/262
f 136/136/263 137/137/264 131/131/265
f 137/137/266 138/138/267 134/134/268
