####
#
# OBJ File Generated by Meshlab
#
####
# Object ConstructionObstacles_bar2.obj
#
# Vertices: 8
# Faces: 12
#
####
vn 2.184007 -0.403477 1.570801
v -7.670662 -5.245670 2.132096
vn -0.403690 -2.183965 1.570798
v -12.876716 -8.827749 2.132096
vn -0.403651 -2.184945 -1.570793
v -12.876715 -8.827750 1.530525
vn 2.184906 -0.403862 -1.570793
v -7.670661 -5.245671 1.530525
vn 0.403690 2.183968 -1.570798
v -8.079857 -4.650961 1.530335
vn 0.403651 2.184947 1.570793
v -8.079858 -4.650960 2.131905
vn -2.184909 0.403863 1.570792
v -13.285912 -8.233039 2.131905
vn -2.184009 0.403479 -1.570801
v -13.285911 -8.233040 1.530335
# 8 vertices, 0 vertices normals

f 3//3 2//2 7//7
f 2//2 1//1 7//7
f 7//7 8//8 3//3
f 1//1 6//6 7//7
f 3//3 5//5 4//4
f 8//8 5//5 3//3
f 1//1 4//4 5//5
f 1//1 5//5 6//6
f 3//3 1//1 2//2
f 4//4 1//1 3//3
f 6//6 5//5 7//7
f 8//8 7//7 5//5
# 12 faces, 0 coords texture

# End of File
