# 3ds Max Wavefront OBJ Exporter v0.97b - (c)2007 guruware
# File Created: 14.05.2015 15:25:05

mtllib ConstructionContactSurfaces_hole.mtl

#
# object pCube8
#

v  -11.6858 6.8006 0.2392
v  1.9434 9.1712 0.2666
v  -11.7283 7.0447 0.2666
v  1.9009 9.4153 0.2666
v  -24.6241 -19.3997 0.0000
v  -13.1596 -7.9456 0.0000
v  -9.0986 0.8284 0.0000
v  -24.6241 19.3450 0.0000
v  -13.1435 -7.9689 0.0000
v  -13.1360 -7.9293 0.0000
v  -11.6774 6.7535 0.0000
v  -12.5946 -8.7667 0.0000
v  -10.7244 -6.2701 0.0000
v  -11.7363 7.0917 0.0000
v  -5.0972 4.5820 0.0000
v  -13.1199 -7.9527 0.0000
v  -12.5785 -8.7900 0.0000
v  -10.7084 -6.2934 0.0000
v  -10.7009 -6.2538 0.0000
v  1.8927 9.4624 0.0000
v  -3.3260 6.1113 0.0000
v  -12.5710 -8.7504 0.0000
v  -7.4304 -0.9500 0.0000
v  7.1631 9.6188 0.0000
v  -3.3491 5.7338 0.0000
v  -3.1235 6.1039 0.0000
v  -10.1595 -7.0912 0.0000
v  -8.4770 -4.8315 0.0000
v  2.8926 7.0671 0.0000
v  25.5375 19.3450 0.0000
v  -3.1516 5.7168 0.0000
v  -3.0994 6.1216 0.0000
v  -12.5549 -8.7738 0.0000
v  -10.6848 -6.2772 0.0000
v  -8.4537 -4.8155 0.0000
v  1.9515 9.1241 0.0000
v  7.1808 9.5892 0.0000
v  -3.1186 5.6882 0.0000
v  -0.9521 5.9948 0.0000
v  -10.1434 -7.1145 0.0000
v  -5.4772 -9.1971 0.0000
v  -10.1359 -7.0749 0.0000
v  -8.4606 -4.8552 0.0000
v  -7.6532 -4.2647 0.0000
v  8.1608 7.8180 0.0000
v  -3.4289 2.8036 0.0000
v  -0.8224 6.0187 0.0000
v  -5.4935 -9.1733 0.0000
v  -7.6369 -4.2884 0.0000
v  -7.6300 -4.2487 0.0000
v  -0.6438 6.0090 0.0000
v  6.9608 8.4913 0.0000
v  8.1771 7.7926 0.0000
v  -1.0050 5.5399 0.0000
v  -6.7700 -7.3124 0.0000
v  -5.4703 -9.1574 0.0000
v  -5.4540 -9.1811 0.0000
v  -4.6513 -8.6279 0.0000
v  -10.1198 -7.0983 0.0000
v  -8.4374 -4.8392 0.0000
v  5.3910 -0.3413 0.0000
v  -0.6693 5.4631 0.0000
v  6.9104 8.4373 0.0000
v  7.8486 7.6612 0.0000
v  14.6341 3.0796 0.0000
v  -0.8627 5.4802 0.0000
v  -4.6676 -8.6042 0.0000
v  -6.7863 -7.2886 0.0000
v  -6.7631 -7.2727 0.0000
v  -7.6137 -4.2724 0.0000
v  4.9258 6.9037 0.0000
v  7.7982 7.6072 0.0000
v  13.8130 -1.7026 0.0000
v  15.0697 3.2119 0.0000
v  -0.8617 5.4797 0.0000
v  -6.7468 -7.2964 0.0000
v  14.0429 -2.0956 0.0000
v  13.6499 -2.3254 0.0000
v  25.5375 -19.3997 0.0000
v  -4.6444 -8.5882 -0.0000
v  -4.6280 -8.6119 0.0000
v  -5.9625 -6.7218 0.0000
v  5.4497 -1.2286 0.0000
v  5.3910 2.4616 0.0000
v  4.1689 7.7634 -0.0019
v  3.9733 5.1498 0.0000
v  13.4201 -1.9325 0.0000
v  14.9595 -0.0253 0.0000
v  15.2020 2.7762 0.0000
v  -5.9230 -6.7296 0.0000
v  -5.9462 -6.7456 0.0000
v  -5.9393 -6.7059 0.0000
v  5.4497 1.5743 0.0000
v  2.9091 7.0628 0.0000
v  2.9267 7.0333 0.0000
v  4.8777 6.8607 0.0000
v  6.3567 2.5254 0.0000
v  15.4095 -0.0944 0.0000
v  14.7664 2.6440 0.0000
v  6.3567 -0.2775 0.0000
v  4.1064 7.7220 0.0000
v  4.0034 5.1029 0.0000
v  6.4154 1.6382 0.0000
v  15.0286 0.4247 0.0000
v  15.4786 0.3556 0.0000
v  6.4154 -1.1647 0.0000
v  5.4410 -10.6350 1.3709
v  6.1664 -10.4190 1.4517
v  6.4562 -9.4874 1.5193
v  4.6757 -10.4190 1.2980
v  7.4257 -11.9929 0.6519
v  5.4449 -8.4715 1.3218
v  3.4164 -11.9929 0.6519
v  5.4210 -13.2870 0.6519
v  8.6555 -9.4874 0.6519
v  4.8457 -9.0194 1.2846
v  6.1664 -8.6463 1.4254
v  4.0560 -9.6055 1.1772
v  5.4210 -13.7307 0.3180
v  9.0105 -9.4874 0.3180
v  7.2173 -7.1634 0.6519
v  3.4868 -8.0739 0.6519
v  2.2446 -10.3673 0.6519
v  7.7807 -12.4366 0.3180
v  5.2583 -6.9936 0.6519
v  3.0614 -12.4366 0.3180
v  1.8895 -10.3673 0.3180
v  5.4142 -14.9568 0.0317
v  8.5362 -13.2445 0.0317
v  7.5723 -6.7196 0.3180
v  5.2583 -6.5499 0.3180
v  2.2922 -13.2445 0.0317
v  10.1633 -9.3426 0.0317
v  3.1318 -7.6302 0.3180
v  0.7870 -10.5167 0.0317
v  8.3106 -5.6370 0.0317
v  5.2367 -5.5310 0.0317
v  2.3854 -6.8853 0.0317
# 138 vertices

vn 0.0169 -0.1086 0.9939
vn 0.0002 -0.0013 1.0000
vn 0.0167 -0.1074 0.9941
vn 0.0000 0.0000 1.0000
vn -0.0000 0.0000 1.0000
vn -0.0010 0.0008 1.0000
vn 0.0014 -0.0033 1.0000
vn 0.0000 -0.0000 1.0000
vn -0.0015 0.0025 1.0000
vn -0.0646 -0.1911 0.9794
vn 0.0894 -0.1964 0.9764
vn 0.1396 0.0217 0.9900
vn -0.1938 -0.1058 0.9753
vn 0.3306 -0.2988 0.8952
vn -0.1273 0.2492 0.9600
vn -0.2961 -0.2943 0.9087
vn -0.0002 -0.4567 0.8896
vn 0.5433 0.0283 0.8390
vn -0.1794 0.1130 0.9773
vn 0.0686 0.2297 0.9708
vn -0.2655 0.0537 0.9626
vn 0.0004 -0.3375 0.9413
vn 0.3786 0.0106 0.9255
vn 0.2442 0.3969 0.8848
vn -0.3471 0.3151 0.8833
vn -0.4977 -0.0460 0.8662
vn 0.2605 -0.2340 0.9367
vn -0.1258 0.5051 0.8539
vn -0.2465 -0.2507 0.9361
vn -0.3782 -0.0127 0.9256
vn -0.0003 -0.2274 0.9738
vn 0.1847 -0.1703 0.9679
vn 0.1732 0.2581 0.9505
vn -0.0874 0.3875 0.9177
vn -0.1751 -0.1766 0.9686
vn 0.2380 0.0131 0.9712
vn -0.2556 0.2505 0.9338
vn -0.2483 -0.0160 0.9686
vn 0.1196 0.1805 0.9763
vn -0.0517 0.2669 0.9623
vn -0.1877 0.1844 0.9648
vn 0.0011 -0.0020 1.0000
vn 0.0003 0.0091 1.0000
vn 0.0016 -0.0007 1.0000
vn 0.0041 0.0029 1.0000
vn 0.0031 0.0015 1.0000
vn 0.0000 -0.0071 1.0000
vn -0.0331 0.0968 0.9948
vn -0.0015 0.0027 1.0000
vn -0.0092 0.0194 0.9998
vn -0.0998 -0.1820 0.9782
vn -0.0050 0.0022 1.0000
vn -0.0023 0.0034 1.0000
vn -0.0073 -0.0040 1.0000
# 54 vertex normals

g pCube8
usemtl default
s 1
f 1//1 2//2 3//3 
f 3//3 2//2 4//4 
f 5//4 6//4 7//4 
f 8//4 5//4 7//4 
f 6//4 5//4 9//4 
f 6//4 10//4 7//4 
f 8//4 7//4 11//4 
f 9//4 5//4 12//4 
f 10//4 13//4 7//4 
f 14//4 8//4 11//4 
f 15//4 11//4 7//4 
f 9//4 12//4 16//4 
f 12//4 5//4 17//4 
f 13//4 10//4 18//4 
f 13//4 19//4 7//4 
f 20//4 8//4 14//4 
f 21//4 11//4 15//4 
f 12//4 22//4 16//4 
f 10//4 16//4 18//4 
f 7//4 19//4 23//4 
f 24//4 8//4 20//4 
f 25//4 21//4 15//4 
f 26//4 11//4 21//4 
f 27//4 16//4 22//4 
f 18//4 16//4 27//4 
f 19//4 28//4 23//4 
f 24//4 20//4 29//4 
f 30//4 8//4 24//4 
f 15//4 31//4 25//4 
f 32//4 11//4 26//4 
f 33//4 27//4 22//4 
f 18//4 27//4 34//4 
f 34//4 28//4 19//4 
f 28//4 35//4 23//4 
f 20//4 36//4 29//4 
f 37//5 30//4 24//4 
f 15//4 38//4 31//4 
f 39//4 11//4 32//4 
f 40//4 27//4 33//4 
f 40//4 33//4 41//4 
f 27//4 42//4 34//4 
f 28//4 34//4 43//4 
f 35//4 44//4 23//4 
f 36//4 11//4 29//4 
f 45//4 30//4 37//5 
f 46//4 38//4 15//4 
f 47//4 11//4 39//4 
f 41//4 48//4 40//4 
f 43//4 34//4 42//4 
f 44//4 35//4 49//4 
f 44//4 50//4 23//4 
f 29//4 11//4 51//4 
f 52//4 45//4 37//5 
f 53//4 30//4 45//4 
f 54//4 38//4 46//4 
f 51//4 11//4 47//4 
f 48//4 55//4 40//4 
f 56//4 57//4 58//4 
f 59//4 43//4 42//4 
f 35//4 60//4 49//4 
f 50//4 61//4 23//4 
f 62//4 29//4 51//4 
f 63//4 52//4 37//5 
f 64//4 45//4 52//4 
f 65//4 30//4 53//4 
f 66//4 54//4 46//4 
f 48//4 56//4 55//4 
f 40//4 55//4 59//4 
f 67//4 56//4 58//4 
f 68//4 43//4 59//4 
f 60//4 69//4 49//4 
f 70//4 61//4 50//4 
f 61//4 46//4 23//4 
f 46//4 29//4 62//4 
f 71//6 63//4 37//5 
f 64//4 72//4 45//4 
f 73//4 65//4 53//4 
f 74//4 30//4 65//4 
f 75//4 66//4 46//4 
f 55//4 56//4 76//4 
f 55//4 68//4 59//4 
f 77//4 78//4 79//4 
f 80//4 81//4 78//4 
f 56//4 67//4 76//4 
f 43//4 68//4 60//4 
f 68//4 69//4 60//4 
f 69//4 82//4 49//4 
f 83//4 61//4 70//4 
f 84//4 46//4 61//4 
f 75//4 46//4 62//4 
f 46//4 84//4 29//4 
f 85//7 71//6 37//5 
f 72//4 63//4 71//6 
f 45//4 72//4 86//4 
f 87//4 73//4 53//4 
f 73//4 88//4 65//4 
f 89//4 30//4 74//4 
f 73//4 77//4 79//4 
f 90//8 80//4 78//4 
f 91//4 76//4 67//4 
f 82//4 69//4 91//4 
f 49//4 82//4 70//4 
f 70//4 92//4 83//4 
f 84//4 61//4 93//4 
f 29//4 84//4 94//4 
f 95//8 85//7 37//5 
f 96//4 72//4 71//6 
f 86//4 72//4 96//4 
f 97//4 87//4 53//4 
f 88//4 73//4 98//4 
f 65//4 88//4 99//4 
f 79//4 30//4 89//4 
f 98//4 73//4 79//4 
f 78//4 87//4 90//8 
f 90//8 91//4 80//4 
f 80//4 91//4 67//4 
f 69//4 76//4 91//4 
f 82//4 92//4 70//4 
f 90//8 83//4 92//4 
f 61//4 100//4 93//4 
f 94//4 84//4 95//8 
f 95//8 101//9 85//7 
f 86//4 96//4 95//8 
f 97//4 53//4 102//4 
f 103//4 87//4 97//4 
f 88//4 104//4 99//4 
f 79//4 89//4 105//4 
f 105//4 98//4 79//4 
f 87//4 106//4 90//8 
f 106//4 83//4 90//8 
f 93//4 100//4 103//4 
f 95//8 84//4 86//4 
f 95//8 96//4 101//9 
f 102//4 84//4 97//4 
f 100//4 87//4 103//4 
f 89//4 99//4 104//4 
f 105//4 89//4 104//4 
f 106//4 87//4 100//4 
f 86//4 84//4 102//4 
f 107//10 108//11 109//12 
f 110//13 107//10 109//12 
f 111//14 108//11 107//10 
f 109//12 108//11 111//14 
f 110//13 109//12 112//15 
f 107//10 110//13 113//16 
f 107//10 114//17 111//14 
f 111//14 115//18 109//12 
f 110//13 112//15 116//19 
f 109//12 117//20 112//15 
f 113//16 114//17 107//10 
f 113//16 110//13 118//21 
f 111//14 114//17 119//22 
f 120//23 115//18 111//14 
f 109//12 115//18 121//24 
f 110//13 116//19 118//21 
f 122//25 116//19 112//15 
f 121//24 117//20 109//12 
f 112//15 117//20 121//24 
f 119//22 114//17 113//16 
f 118//21 123//26 113//16 
f 119//22 124//27 111//14 
f 111//14 124//27 120//23 
f 121//24 115//18 120//23 
f 118//21 116//19 122//25 
f 112//15 125//28 122//25 
f 121//24 125//28 112//15 
f 113//16 126//29 119//22 
f 122//25 123//26 118//21 
f 113//16 123//26 127//30 
f 124//27 119//22 128//31 
f 120//23 124//27 129//32 
f 120//23 130//33 121//24 
f 122//25 125//28 131//34 
f 131//34 125//28 121//24 
f 127//30 126//29 113//16 
f 119//22 126//29 132//35 
f 127//30 123//26 122//25 
f 128//31 129//32 124//27 
f 132//35 128//31 119//22 
f 129//32 133//36 120//23 
f 130//33 120//23 133//36 
f 121//24 130//33 131//34 
f 131//34 134//37 122//25 
f 126//29 127//30 135//38 
f 135//38 132//35 126//29 
f 122//25 134//37 127//30 
f 133//36 136//39 130//33 
f 131//34 130//33 136//39 
f 134//37 131//34 137//40 
f 138//41 135//38 127//30 
f 127//30 134//37 138//41 
f 136//39 137//40 131//34 
f 137//40 138//41 134//37 
s off
f 129//42 128//42 79//42 
f 78//43 137//43 136//43 
f 133//44 129//44 79//44 
f 79//45 78//45 136//45 
f 79//46 136//46 133//46 
f 56//4 22//4 5//4 
f 5//47 79//47 128//47 
f 137//48 78//48 80//48 
f 56//49 5//49 128//49 
f 138//50 137//50 80//50 
f 56//51 128//51 132//51 
f 135//52 138//52 80//52 
f 80//53 56//53 132//53 
f 132//54 135//54 80//54 
# 207 faces

