# This file uses meters as units for non-parametric coordinates.

mtllib Contacts_Maya.mtl
v -304.081463 1263.671017 -2047.322599
v 124.524250 1263.671017 -2070.150434
v -327.754528 1263.671017 -2491.799939
v 100.851093 1263.671017 -2514.627759
vt 0.000000 0.000000
vt 1.000000 0.000000
vt 0.000000 0.932278
vt 1.000000 0.932278
vn 0.000000 1.000000 0.000000
vn 0.000000 1.000000 0.000000
vn 0.000000 1.000000 0.000000
vn 0.000000 1.000000 0.000000
usemtl initialShadingGroup
f 1/1/1 2/2/2 4/4/3 3/3/4
v 116.099426 1272.050534 -2117.295872
v 156.855437 1272.050534 -2119.466496
v 94.736386 1272.050412 -2518.399845
v 134.419087 1272.050412 -2540.719914
vt 0.000000 0.000000
vt 0.141691 0.000000
vt 0.000000 1.000000
vt 0.141691 1.000000
vn -0.000000 1.000000 -0.000000
vn -0.000000 1.000000 -0.000000
vn -0.000000 1.000000 -0.000000
vn -0.000000 1.000000 -0.000000
f 5/5/5 6/6/6 8/8/7 7/7/8
v -259.662579 1204.615719 -1955.066217
v 129.759037 1204.615719 -1971.864546
v -265.525463 1204.615719 -2065.146482
v 123.477314 1204.615719 -2089.807527
vt 0.000000 0.000000
vt 1.000000 0.000000
vt 0.000000 0.229081
vt 1.000000 0.229081
vn 0.000000 1.000000 0.000000
vn 0.000000 1.000000 0.000000
vn 0.000000 1.000000 0.000000
vn 0.000000 1.000000 0.000000
f 9/9/9 10/10/10 12/12/11 11/11/12
v -293.611829 1145.560788 -1850.750710
v 134.993914 1145.560788 -1873.578450
v -299.893476 1145.560788 -1968.693741
v 128.712115 1145.560788 -1991.521462
vt 0.000000 0.000000
vt 1.000000 0.000000
vt 0.000000 0.212282
vt 1.000000 0.212282
vn -0.000000 1.000000 0.000000
vn -0.000000 1.000000 0.000000
vn -0.000000 1.000000 0.000000
vn -0.000000 1.000000 0.000000
f 13/13/13 14/14/14 16/16/15 15/15/16
v -249.192950 1086.505368 -1758.494543
v 140.228681 1086.505368 -1775.292867
v -255.055789 1086.505368 -1868.574781
v 133.946881 1086.505368 -1893.235883
vt 0.000000 0.000000
vt 1.000000 0.000000
vt 0.000000 0.227514
vt 1.000000 0.227514
vn 0.000000 1.000000 0.000000
vn 0.000000 1.000000 0.000000
vn 0.000000 1.000000 0.000000
vn 0.000000 1.000000 0.000000
f 17/17/17 18/18/18 20/20/19 19/19/20
v -243.958354 1027.450558 -1660.208543
v 141.322378 1027.450558 -1680.728914
v -249.821208 1027.450558 -1770.288808
v 139.181478 1027.450558 -1794.949899
vt 0.000000 0.000000
vt 1.000000 0.000000
vt 0.000000 0.344332
vt 1.000000 0.344332
vn 0.000000 1.000000 0.000000
vn 0.000000 1.000000 0.000000
vn 0.000000 1.000000 0.000000
vn 0.000000 1.000000 0.000000
f 21/21/21 22/22/22 24/24/23 23/23/24
v -238.723519 968.395260 -1561.922748
v 150.698051 968.395260 -1578.720962
v -244.586343 968.395260 -1672.002994
v 144.416404 968.395260 -1696.664035
vt 0.000000 0.000000
vt 1.000000 0.000000
vt 0.000000 0.344347
vt 1.000000 0.344347
vn 0.000000 1.000000 0.000000
vn 0.000000 1.000000 0.000000
vn 0.000000 1.000000 0.000000
vn 0.000000 1.000000 0.000000
f 25/25/25 26/26/26 28/28/27 27/27/28
v -233.488675 909.340329 -1463.636718
v 151.792087 909.340329 -1484.156936
v -239.351514 909.340329 -1573.716838
v 145.929233 909.340329 -1594.237186
vt 0.000000 0.000000
vt 1.000000 0.000000
vt 0.000000 0.328837
vt 1.000000 0.328837
vn 0.000000 1.000000 0.000000
vn 0.000000 1.000000 0.000000
vn 0.000000 1.000000 0.000000
vn 0.000000 1.000000 0.000000
f 29/29/29 30/30/30 32/32/31 31/31/32
v -228.253914 850.285153 -1365.350972
v 157.026848 850.285153 -1385.871190
v -234.116768 850.285153 -1475.431234
v 154.885979 850.285153 -1500.092244
vt 0.000000 0.000000
vt 1.000000 0.000000
vt 0.000000 0.351676
vt 1.000000 0.351676
vn 0.000000 1.000000 0.000000
vn 0.000000 1.000000 0.000000
vn 0.000000 1.000000 0.000000
vn 0.000000 1.000000 0.000000
f 33/33/33 34/34/34 36/36/35 35/35/36
v -223.019152 791.230160 -1267.064865
v 166.402418 791.230160 -1283.863106
v -228.881991 791.230160 -1377.145123
v 160.120664 791.230160 -1401.806198
vt 0.000000 0.000000
vt 1.000000 0.000000
vt 0.000000 0.351661
vt 1.000000 0.351661
vn 0.000000 1.000000 0.000000
vn 0.000000 1.000000 0.000000
vn 0.000000 1.000000 0.000000
vn 0.000000 1.000000 0.000000
f 37/37/37 38/38/38 40/40/39 39/39/40
v -217.784437 732.175046 -1168.779045
v 167.496325 732.175046 -1189.299259
v -223.647337 732.175046 -1278.859215
v 165.355471 732.175046 -1303.520325
vt 0.000000 0.000000
vt 1.000000 0.000000
vt 0.000000 0.344347
vt 1.000000 0.344347
vn 0.000000 1.000000 0.000000
vn 0.000000 1.000000 0.000000
vn 0.000000 1.000000 0.000000
vn 0.000000 1.000000 0.000000
f 41/41/41 42/42/42 44/44/43 43/43/44
v -212.549662 673.119809 -1070.493155
v 176.871924 673.119809 -1087.291392
v -218.412546 673.119809 -1180.573325
v 170.590262 673.119809 -1205.234435
vt 0.000000 0.000000
vt 1.000000 0.000000
vt 0.000000 0.351677
vt 1.000000 0.351677
vn 0.000000 1.000000 0.000000
vn 0.000000 1.000000 0.000000
vn 0.000000 1.000000 0.000000
vn 0.000000 1.000000 0.000000
f 45/45/45 46/46/46 48/48/47 47/47/48
v -207.314950 614.064816 -972.207320
v 182.106635 614.064816 -989.005561
v -213.177774 614.064816 -1082.287591
v 175.824897 614.064816 -1106.948664
vt 0.000000 0.000000
vt 1.000000 0.000000
vt 0.000000 0.174868
vt 1.000000 0.174868
vn 0.000000 1.000000 0.000000
vn 0.000000 1.000000 0.000000
vn 0.000000 1.000000 0.000000
vn 0.000000 1.000000 0.000000
f 49/49/49 50/50/50 52/52/51 51/51/52
v -202.080207 555.009640 -873.921349
v 187.341424 555.009640 -890.719681
v -207.943046 555.009640 -984.001625
v 181.059716 555.009640 -1008.662643
vt 0.000000 0.000000
vt 1.000000 0.000000
vt 0.000000 0.344347
vt 1.000000 0.344347
vn 0.000000 1.000000 0.000000
vn 0.000000 1.000000 0.000000
vn 0.000000 1.000000 0.000000
vn 0.000000 1.000000 0.000000
f 53/53/53 54/54/54 56/56/55 55/55/56
v -196.845437 495.954526 -775.635623
v 192.576148 495.954526 -792.433871
v -202.708200 495.954526 -885.715808
v 182.572486 495.954526 -906.236102
vt 0.000000 0.000000
vt 1.000000 0.000000
vt 0.000000 0.344213
vt 1.000000 0.344213
vn 0.000000 1.000000 0.000000
vn 0.000000 1.000000 0.000000
vn 0.000000 1.000000 0.000000
vn 0.000000 1.000000 0.000000
f 57/57/57 58/58/58 60/60/59 59/59/60
v -191.610716 436.899441 -677.349802
v 193.670045 436.899441 -697.870005
v -197.473555 436.899441 -787.429896
v 187.807191 436.899441 -807.950266
vt 0.000000 0.000000
vt 1.000000 0.000000
vt 0.000000 0.344198
vt 1.000000 0.344198
vn 0.000000 1.000000 0.000000
vn 0.000000 1.000000 0.000000
vn 0.000000 1.000000 0.000000
vn 0.000000 1.000000 0.000000
f 61/61/61 62/62/62 64/64/63 63/63/64
v -186.375862 377.844449 -579.063651
v 198.904793 377.844449 -599.583911
v -192.238792 377.844449 -689.143798
v 196.763894 377.844449 -713.804900
vt 0.000000 0.000000
vt 1.000000 0.000000
vt 0.000000 0.321044
vt 1.000000 0.321044
vn 0.000000 1.000000 0.000000
vn 0.000000 1.000000 0.000000
vn 0.000000 1.000000 0.000000
vn 0.000000 1.000000 0.000000
f 65/65/65 66/66/66 68/68/67 67/67/68
v -181.141069 318.789029 -480.777755
v 204.139677 318.789029 -501.297958
v -187.003984 318.789029 -590.857904
v 198.276778 318.789029 -611.378135
vt 0.000000 0.000000
vt 1.000000 0.000000
vt 0.000000 0.214674
vt 1.000000 0.214674
vn 0.000000 1.000000 0.000000
vn 0.000000 1.000000 0.000000
vn 0.000000 1.000000 0.000000
vn 0.000000 1.000000 0.000000
f 69/69/69 70/70/70 72/72/71 71/71/72
v -175.906437 259.734128 -382.492192
v 213.515240 259.734128 -399.290341
v -181.769306 259.734128 -492.572381
v 207.233456 259.734128 -517.233388
vt 0.000000 0.000000
vt 1.000000 0.000000
vt 0.000000 0.344213
vt 1.000000 0.344213
vn 0.000000 1.000000 -0.000000
vn 0.000000 1.000000 -0.000000
vn 0.000000 1.000000 -0.000000
vn 0.000000 1.000000 -0.000000
f 73/73/73 74/74/74 76/76/75 75/75/76
v -170.671557 200.678830 -284.206244
v 218.750074 200.678830 -301.004419
v -176.534457 200.678830 -394.286444
v 212.468305 200.678830 -418.947493
vt 0.000000 0.000000
vt 1.000000 0.000000
vt 0.000000 0.344332
vt 1.000000 0.344332
vn 0.000000 1.000000 0.000000
vn 0.000000 1.000000 0.000000
vn 0.000000 1.000000 0.000000
vn 0.000000 1.000000 0.000000
f 77/77/77 78/78/78 80/80/79 79/79/80
v -165.436802 141.623776 -185.920080
v 223.984829 141.623776 -202.718263
v -171.299595 141.623776 -296.000288
v 217.703044 141.623715 -320.661337
vt 0.000000 0.000000
vt 1.000000 0.000000
vt 0.000000 0.344347
vt 1.000000 0.344347
vn 0.000000 1.000000 -0.000000
vn 0.000000 1.000000 -0.000000
vn 0.000000 1.000000 -0.000000
vn 0.000000 1.000000 -0.000000
f 81/81/81 82/82/82 84/84/83 83/83/84
v -160.202099 82.568783 -87.634094
v 229.219532 82.568783 -104.432273
v -166.064892 82.568783 -197.714229
v 222.937732 82.568783 -222.375297
vt 0.000000 0.000000
vt 1.000000 0.000000
vt 0.000000 0.278833
vt 1.000000 0.278833
vn 0.000000 1.000000 0.000000
vn 0.000000 1.000000 0.000000
vn 0.000000 1.000000 0.000000
vn 0.000000 1.000000 0.000000
f 85/85/85 86/86/86 88/88/87 87/87/88
v -154.967412 23.513669 10.651579
v 230.313365 23.513669 -9.868632
v -160.830327 23.513669 -99.428564
v 228.172495 23.513669 -124.089716
vt 0.000000 0.000000
vt 1.000000 0.000000
vt 0.000000 0.344332
vt 1.000000 0.344332
vn 0.000000 1.000000 0.000000
vn 0.000000 1.000000 0.000000
vn 0.000000 1.000000 0.000000
vn 0.000000 1.000000 0.000000
f 89/89/89 90/90/90 92/92/91 91/91/92
v 134.414138 1169.688229 -2540.714885
v 134.424138 1169.688229 -2540.714885
v 134.414138 1169.688229 -2540.724885
v 134.424138 1169.688229 -2540.724885
vt 0.000000 0.000000
vt 1.000000 0.000000
vt 0.000000 1.000000
vt 1.000000 1.000000
vn 0.000000 1.000000 0.000000
vn 0.000000 1.000000 0.000000
vn 0.000000 1.000000 0.000000
vn 0.000000 1.000000 0.000000
f 93/93/93 94/94/94 96/96/95 95/95/96
v 1004.509002 1224.809790 -2086.299829
v 981.497039 1233.188818 -2514.015649
v 4191.869354 1196.823340 288.427832
v 3555.026580 1205.202368 -4231.572656
v 1785.020965 1210.466284 -709.245386
v 1767.094451 1219.941992 -3665.647852
v 156.855437 1272.050513 -2119.466455
v 134.419067 1272.050391 -2540.719873
vt 0.000000 0.473332
vt 1.000000 0.512516
vt 1.000000 1.000000
vt 0.000000 1.000000
vt 0.000000 0.000000
vt 1.000000 0.000000
vt 0.000000 0.000000
vt 1.000000 0.000000
vt 1.000000 1.000000
vt 0.000000 1.000000
vn 0.006580 0.999977 0.001812
vn 0.006580 0.999977 0.001812
vn 0.006580 0.999977 0.001812
vn 0.006580 0.999977 0.001812
vn 0.016884 0.999845 0.005071
vn 0.016884 0.999845 0.005071
vn 0.022034 0.999743 0.005390
vn 0.021263 0.999760 0.005343
vn 0.050487 0.998699 0.007154
vn 0.050487 0.998699 0.007154
f 102/97/97 101/98/98 99/99/99 100/100/100
f 101/98/101 102/97/102 98/101/103 97/102/104
f 97/103/104 98/104/103 104/105/105 103/106/106
v -167.702348 10.900000 8.347815
v 259.466354 10.900000 8.512305
v -187.732194 10.900000 1251.064063
v 239.436507 10.900000 1251.228613
v -1174.147858 10.900000 3051.063574
v 3325.852020 10.900000 3051.228125
v -874.147858 10.900000 1451.146338
v 1925.852142 10.900000 1513.605811
vt 0.000000 1.000000
vt 0.000000 0.000000
vt 1.000000 0.000000
vt 1.000000 1.000000
vt 0.000000 0.286928
vt 0.000000 0.000000
vt 1.000000 0.000000
vt 1.000000 0.226976
vt 1.000000 1.000000
vt 0.000000 1.000000
vn 0.000000 1.000000 0.000000
vn 0.000000 1.000000 0.000000
vn 0.000000 1.000000 0.000000
vn 0.000000 1.000000 0.000000
vn 0.000000 1.000000 0.000000
vn 0.000000 1.000000 0.000000
vn 0.000000 1.000000 0.000000
vn 0.000000 1.000000 0.000000
f 108/107/107 106/108/108 105/109/109 107/110/110
f 112/111/111 108/112/107 107/113/110 111/114/112 109/115/113 110/116/114
