####
#
# OBJ File Generated by Meshlab
#
####
# Object Contacts_Meshlab.obj
#
# Vertices: 112
# Faces: 60
#
####
mtllib ./Contacts_Meshlab.obj.mtl

vn 0.000000 -0.000000 1.000000
v -0.760203 5.118307 3.159178 0.749020 0.749020 0.749020
vn 0.000000 -0.000000 2.000000
v 0.311310 5.175376 3.159178 0.749020 0.749020 0.749020
vn 0.000000 -0.000000 2.000000
v -0.819386 6.229500 3.159178 0.749020 0.749020 0.749020
vn 0.000000 -0.000000 1.000000
v 0.252128 6.286569 3.159178 0.749020 0.749020 0.749020
vn -0.000000 0.000000 1.000000
v 0.290248 5.293240 3.180126 0.494118 0.494118 0.494118
vn -0.000000 0.000000 2.000000
v 0.392138 5.298666 3.180126 0.494118 0.494118 0.494118
vn -0.000000 0.000000 2.000000
v 0.236841 6.296000 3.180126 0.494118 0.494118 0.494118
vn -0.000000 0.000000 1.000000
v 0.336048 6.351800 3.180126 0.494118 0.494118 0.494118
vn 0.000000 -0.000000 1.000000
v -0.649156 4.887665 3.011539 0.494118 0.494118 0.494118
vn 0.000000 -0.000000 2.000000
v 0.324397 4.929661 3.011539 0.494118 0.494118 0.494118
vn 0.000000 -0.000000 2.000000
v -0.663813 5.162866 3.011539 0.494118 0.494118 0.494118
vn 0.000000 -0.000000 1.000000
v 0.308693 5.224519 3.011539 0.494118 0.494118 0.494118
vn 0.000000 -0.000000 1.000000
v -0.734029 4.626877 2.863902 0.494118 0.494118 0.494118
vn 0.000000 -0.000000 2.000000
v 0.337485 4.683946 2.863902 0.494118 0.494118 0.494118
vn 0.000000 -0.000000 2.000000
v -0.749734 4.921734 2.863902 0.494118 0.494118 0.494118
vn 0.000000 -0.000000 1.000000
v 0.321780 4.978804 2.863902 0.494118 0.494118 0.494118
vn 0.000000 -0.000000 1.000000
v -0.622982 4.396236 2.716264 0.494118 0.494118 0.494118
vn 0.000000 -0.000000 2.000000
v 0.350572 4.438232 2.716264 0.494118 0.494118 0.494118
vn 0.000000 -0.000000 2.000000
v -0.637639 4.671437 2.716264 0.494118 0.494118 0.494118
vn 0.000000 -0.000000 1.000000
v 0.334867 4.733089 2.716264 0.494118 0.494118 0.494118
vn 0.000000 -0.000000 1.000000
v -0.609896 4.150521 2.568627 0.494118 0.494118 0.494118
vn 0.000000 -0.000000 2.000000
v 0.353306 4.201822 2.568627 0.494118 0.494118 0.494118
vn 0.000000 -0.000000 2.000000
v -0.624553 4.425722 2.568627 0.494118 0.494118 0.494118
vn 0.000000 -0.000000 1.000000
v 0.347954 4.487375 2.568627 0.494118 0.494118 0.494118
vn 0.000000 -0.000000 1.000000
v -0.596809 3.904807 2.420988 0.494118 0.494118 0.494118
vn 0.000000 -0.000000 2.000000
v 0.376745 3.946803 2.420988 0.494118 0.494118 0.494118
vn 0.000000 -0.000000 2.000000
v -0.611466 4.180007 2.420988 0.494118 0.494118 0.494118
vn 0.000000 -0.000000 1.000000
v 0.361041 4.241660 2.420988 0.494118 0.494118 0.494118
vn 0.000000 -0.000000 1.000000
v -0.583722 3.659092 2.273351 0.494118 0.494118 0.494118
vn 0.000000 -0.000000 2.000000
v 0.379480 3.710392 2.273351 0.494118 0.494118 0.494118
vn 0.000000 -0.000000 2.000000
v -0.598379 3.934292 2.273351 0.494118 0.494118 0.494118
vn 0.000000 -0.000000 1.000000
v 0.364823 3.985593 2.273351 0.494118 0.494118 0.494118
vn 0.000000 -0.000000 1.000000
v -0.570635 3.413377 2.125713 0.494118 0.494118 0.494118
vn 0.000000 -0.000000 2.000000
v 0.392567 3.464678 2.125713 0.494118 0.494118 0.494118
vn 0.000000 -0.000000 2.000000
v -0.585292 3.688578 2.125713 0.494118 0.494118 0.494118
vn 0.000000 -0.000000 1.000000
v 0.387215 3.750231 2.125713 0.494118 0.494118 0.494118
vn 0.000000 -0.000000 1.000000
v -0.557548 3.167662 1.978076 0.494118 0.494118 0.494118
vn 0.000000 -0.000000 2.000000
v 0.416006 3.209658 1.978076 0.494118 0.494118 0.494118
vn 0.000000 -0.000000 2.000000
v -0.572205 3.442863 1.978076 0.494118 0.494118 0.494118
vn 0.000000 -0.000000 1.000000
v 0.400302 3.504515 1.978076 0.494118 0.494118 0.494118
vn 0.000000 -0.000000 1.000000
v -0.544461 2.921947 1.830438 0.494118 0.494118 0.494118
vn 0.000000 -0.000000 2.000000
v 0.418741 2.973248 1.830438 0.494118 0.494118 0.494118
vn 0.000000 -0.000000 2.000000
v -0.559118 3.197148 1.830438 0.494118 0.494118 0.494118
vn 0.000000 -0.000000 1.000000
v 0.413389 3.258801 1.830438 0.494118 0.494118 0.494118
vn 0.000000 -0.000000 1.000000
v -0.531374 2.676233 1.682800 0.494118 0.494118 0.494118
vn 0.000000 -0.000000 2.000000
v 0.442180 2.718228 1.682800 0.494118 0.494118 0.494118
vn 0.000000 -0.000000 2.000000
v -0.546031 2.951433 1.682800 0.494118 0.494118 0.494118
vn 0.000000 -0.000000 1.000000
v 0.426476 3.013086 1.682800 0.494118 0.494118 0.494118
vn 0.000000 -0.000000 1.000000
v -0.518287 2.430518 1.535162 0.494118 0.494118 0.494118
vn 0.000000 -0.000000 2.000000
v 0.455266 2.472514 1.535162 0.494118 0.494118 0.494118
vn 0.000000 -0.000000 2.000000
v -0.532944 2.705719 1.535162 0.494118 0.494118 0.494118
vn 0.000000 -0.000000 1.000000
v 0.439562 2.767371 1.535162 0.494118 0.494118 0.494118
vn 0.000000 -0.000000 1.000000
v -0.505200 2.184803 1.387524 0.494118 0.494118 0.494118
vn 0.000000 -0.000000 2.000000
v 0.468353 2.226799 1.387524 0.494118 0.494118 0.494118
vn 0.000000 -0.000000 2.000000
v -0.519857 2.460004 1.387524 0.494118 0.494118 0.494118
vn 0.000000 -0.000000 1.000000
v 0.452649 2.521657 1.387524 0.494118 0.494118 0.494118
vn 0.000000 -0.000000 1.000000
v -0.492113 1.939089 1.239886 0.494118 0.494118 0.494118
vn 0.000000 -0.000000 2.000000
v 0.481440 1.981085 1.239886 0.494118 0.494118 0.494118
vn 0.000000 -0.000000 2.000000
v -0.506770 2.214289 1.239886 0.494118 0.494118 0.494118
vn 0.000000 -0.000000 1.000000
v 0.456431 2.265590 1.239886 0.494118 0.494118 0.494118
vn 0.000000 -0.000000 1.000000
v -0.479027 1.693375 1.092249 0.494118 0.494118 0.494118
vn 0.000000 -0.000000 2.000000
v 0.484175 1.744675 1.092249 0.494118 0.494118 0.494118
vn 0.000000 -0.000000 2.000000
v -0.493684 1.968575 1.092249 0.494118 0.494118 0.494118
vn 0.000000 -0.000000 1.000000
v 0.469518 2.019876 1.092249 0.494118 0.494118 0.494118
vn 0.000000 -0.000000 1.000000
v -0.465939 1.447659 0.944611 0.494118 0.494118 0.494118
vn 0.000000 -0.000000 2.000000
v 0.497262 1.498960 0.944611 0.494118 0.494118 0.494118
vn 0.000000 -0.000000 2.000000
v -0.480597 1.722860 0.944611 0.494118 0.494118 0.494118
vn 0.000000 -0.000000 1.000000
v 0.491910 1.784512 0.944611 0.494118 0.494118 0.494118
vn 0.000000 -0.000000 1.000000
v -0.452853 1.201944 0.796973 0.494118 0.494118 0.494118
vn 0.000000 -0.000000 2.000000
v 0.510349 1.253245 0.796973 0.494118 0.494118 0.494118
vn 0.000000 -0.000000 2.000000
v -0.467510 1.477145 0.796973 0.494118 0.494118 0.494118
vn 0.000000 -0.000000 1.000000
v 0.495692 1.528445 0.796973 0.494118 0.494118 0.494118
vn 0.000000 -0.000000 1.000000
v -0.439766 0.956231 0.649335 0.494118 0.494118 0.494118
vn 0.000000 -0.000000 2.000000
v 0.533788 0.998226 0.649335 0.494118 0.494118 0.494118
vn 0.000000 -0.000000 2.000000
v -0.454423 1.231431 0.649335 0.494118 0.494118 0.494118
vn 0.000000 -0.000000 1.000000
v 0.518084 1.293084 0.649335 0.494118 0.494118 0.494118
vn 0.000000 -0.000000 1.000000
v -0.426679 0.710515 0.501697 0.494118 0.494118 0.494118
vn 0.000000 -0.000000 2.000000
v 0.546875 0.752511 0.501697 0.494118 0.494118 0.494118
vn 0.000000 -0.000000 2.000000
v -0.441336 0.985716 0.501697 0.494118 0.494118 0.494118
vn 0.000000 -0.000000 1.000000
v 0.531171 1.047369 0.501697 0.494118 0.494118 0.494118
vn 0.000000 0.000000 1.000000
v -0.413592 0.464800 0.354060 0.494118 0.494118 0.494118
vn 0.000000 0.000001 2.000000
v 0.559962 0.506796 0.354060 0.494118 0.494118 0.494118
vn 0.000000 0.000001 2.000000
v -0.428249 0.740001 0.354060 0.494118 0.494118 0.494118
vn 0.000000 0.000000 1.000000
v 0.544257 0.801653 0.354059 0.494118 0.494118 0.494118
vn 0.000000 -0.000000 1.000000
v -0.400505 0.219085 0.206422 0.494118 0.494118 0.494118
vn 0.000000 -0.000000 2.000000
v 0.573049 0.261081 0.206422 0.494118 0.494118 0.494118
vn 0.000000 -0.000000 2.000000
v -0.415162 0.494285 0.206422 0.494118 0.494118 0.494118
vn 0.000000 -0.000000 1.000000
v 0.557344 0.555938 0.206422 0.494118 0.494118 0.494118
vn 0.000000 -0.000000 1.000000
v -0.387418 -0.026629 0.058784 0.494118 0.494118 0.494118
vn 0.000000 -0.000000 2.000000
v 0.575783 0.024671 0.058784 0.494118 0.494118 0.494118
vn 0.000000 -0.000000 2.000000
v -0.402076 0.248572 0.058784 0.494118 0.494118 0.494118
vn 0.000000 -0.000000 1.000000
v 0.570431 0.310224 0.058784 0.494118 0.494118 0.494118
vn 0.000000 -0.000000 1.000000
v 0.336035 6.351787 2.924221 0.494118 0.494118 0.494118
vn 0.000000 -0.000000 2.000000
v 0.336060 6.351787 2.924221 0.494118 0.494118 0.494118
vn 0.000000 -0.000000 2.000000
v 0.336035 6.351812 2.924221 0.494118 0.494118 0.494118
vn 0.000000 -0.000000 1.000000
v 0.336060 6.351812 2.924221 0.494118 0.494118 0.494118
vn 0.084256 -0.017296 2.998389
v 2.511272 5.215749 3.062025 0.494118 0.494118 0.494118
vn 0.117859 -0.019379 2.997243
v 2.453742 6.285039 3.082972 0.494118 0.494118 0.494118
vn 0.006580 -0.001812 0.999977
v 10.479671 -0.721070 2.992058 0.494118 0.494118 0.494118
vn 0.013159 -0.003624 1.999954
v 8.887566 10.578932 3.013006 0.494118 0.494118 0.494118
vn 0.030043 -0.008695 2.999798
v 4.462552 1.773113 3.026166 0.494118 0.494118 0.494118
vn 0.040348 -0.011954 2.999666
v 4.417736 9.164120 3.049855 0.494118 0.494118 0.494118
vn 0.100974 -0.014308 1.997398
v 0.392138 5.298666 3.180126 0.494118 0.494118 0.494118
vn 0.050487 -0.007154 0.998699
v 0.336048 6.351800 3.180126 0.494118 0.494118 0.494118
vn 0.000000 -0.000000 1.000000
v -0.419256 -0.020870 0.027250 0.494118 0.494118 0.494118
vn 0.000000 -0.000000 2.000000
v 0.648666 -0.021281 0.027250 0.494118 0.494118 0.494118
vn 0.000000 -0.000000 3.000000
v -0.469330 -3.127660 0.027250 0.494118 0.494118 0.494118
vn 0.000000 -0.000000 5.000000
v 0.598591 -3.128072 0.027250 0.494118 0.494118 0.494118
vn 0.000000 -0.000000 2.000000
v -2.935369 -7.627658 0.027250 0.494118 0.494118 0.494118
vn 0.000000 -0.000000 2.000000
v 8.314629 -7.628070 0.027250 0.494118 0.494118 0.494118
vn 0.000000 -0.000000 2.000000
v -2.185369 -3.627866 0.027250 0.494118 0.494118 0.494118
vn 0.000000 -0.000000 1.000000
v 4.814630 -3.784014 0.027250 0.494118 0.494118 0.494118
# 112 vertices, 0 vertices normals


usemtl material_0
vt 0.000000 0.000000
f 2/1/2 4/1/4 3/1/3
vt -1.000000 0.000000
f 2/1/2 3/1/3 1/2/1
f 6/1/6 8/1/8 7/1/7
f 6/1/6 7/1/7 5/2/5
f 10/1/10 12/1/12 11/1/11
f 10/1/10 11/1/11 9/2/9
f 14/1/14 16/1/16 15/1/15
f 14/1/14 15/1/15 13/2/13
f 18/1/18 20/1/20 19/1/19
f 18/1/18 19/1/19 17/2/17
f 22/1/22 24/1/24 23/1/23
f 22/1/22 23/1/23 21/2/21
f 26/1/26 28/1/28 27/1/27
f 26/1/26 27/1/27 25/2/25
f 30/1/30 32/1/32 31/1/31
f 30/1/30 31/1/31 29/2/29
f 34/1/34 36/1/36 35/1/35
f 34/1/34 35/1/35 33/2/33
f 38/1/38 40/1/40 39/1/39
f 38/1/38 39/1/39 37/2/37
f 42/1/42 44/1/44 43/1/43
f 42/1/42 43/1/43 41/2/41
f 46/1/46 48/1/48 47/1/47
f 46/1/46 47/1/47 45/2/45
f 50/1/50 52/1/52 51/1/51
f 50/1/50 51/1/51 49/2/49
vt -2227591693757058398074096674679029760.000000 0.000000
f 54/1/54 56/1/56 55/3/55
f 54/1/54 55/3/55 53/2/53
vt 0.000000 -2105100517732904933351572488998354944.000000
f 58/1/58 60/4/60 59/1/59
f 58/1/58 59/1/59 57/2/57
f 62/1/62 64/1/64 63/1/63
f 62/1/62 63/1/63 61/2/61
f 66/1/66 68/1/68 67/1/67
f 66/1/66 67/1/67 65/2/65
f 70/1/70 72/1/72 71/1/71
f 70/1/70 71/1/71 69/2/69
f 74/1/74 76/1/76 75/1/75
f 74/1/74 75/1/75 73/2/73
f 78/1/78 80/1/80 79/1/79
f 78/1/78 79/1/79 77/2/77
f 82/1/82 84/1/84 83/1/83
f 82/1/82 83/1/83 81/2/81
f 86/1/86 88/1/88 87/1/87
f 86/1/86 87/1/87 85/2/85
f 90/1/90 92/1/92 91/1/91
f 90/1/90 91/1/91 89/2/89
f 94/1/94 96/1/96 95/1/95
f 94/1/94 95/1/95 93/2/93
f 101/1/101 99/1/99 100/1/100
f 101/1/101 100/1/100 102/2/102
f 102/1/102 98/1/98 97/1/97
f 102/1/102 97/1/97 101/2/101
f 98/1/98 104/1/104 103/1/103
f 98/1/98 103/1/103 97/2/97
f 106/1/106 105/1/105 107/1/107
f 106/1/106 107/1/107 108/1/108
f 108/1/108 107/1/107 111/1/111
f 108/1/108 111/1/111 109/1/109
f 108/1/108 109/1/109 110/1/110
f 108/1/108 110/1/110 112/1/112
# 60 faces, 4 coords texture

# End of File
